<svg version="1.1" id="Layer_1" xmlns="http://www.w3.org/2000/svg" xmlns:xlink="http://www.w3.org/1999/xlink" x="0px" y="0px"
	 width="100%" viewBox="0 0 3300 936" enable-background="new 0 0 3300 936" xml:space="preserve">
<path fill="#FFFFFF" opacity="1.000000" stroke="none" 
	d="
M1807.016357,936.600830 
	C1206.606323,937.000000 606.212585,936.995300 5.818930,937.100281 
	C1.911140,937.101013 0.877450,936.523193 0.880058,932.320557 
	C1.016040,713.192871 1.000000,494.065094 1.000000,274.468658 
	C4.391150,274.036560 4.314089,276.879700 4.723374,278.978882 
	C7.561816,293.537079 12.687363,307.251740 20.594072,319.754700 
	C37.288757,346.154205 59.324760,366.199615 89.531860,376.175720 
	C92.562393,377.176575 95.702133,377.583649 98.848251,377.939209 
	C107.545227,378.922119 112.521240,373.507416 110.853310,364.860352 
	C110.083359,360.868744 108.127449,357.365387 106.131401,353.889984 
	C102.811180,348.109039 98.993279,342.631348 95.788063,336.777679 
	C83.983177,315.218292 79.463867,291.859100 78.532616,267.585968 
	C77.279945,234.935318 81.940575,203.093826 91.787399,172.007004 
	C102.920029,136.860809 119.094193,104.371452 143.373856,76.307961 
	C148.058136,70.893684 153.199432,65.862610 158.609436,61.161217 
	C160.797302,59.259914 163.230209,56.705956 166.533569,58.204830 
	C169.667786,59.626957 169.737259,63.027767 170.236191,65.962761 
	C170.543762,67.772240 170.456650,69.619469 170.456833,71.452507 
	C170.461411,115.117607 171.279480,158.801743 170.265381,202.443329 
	C168.766922,266.929260 170.723633,331.421173 169.251389,395.878479 
	C168.052475,448.369293 169.518082,500.855103 168.291611,553.318115 
	C167.470947,588.422424 166.258621,623.617249 157.057465,657.886719 
	C154.377121,667.869690 150.985809,677.637024 148.201920,687.586975 
	C147.078293,691.602905 145.933578,695.638977 145.712540,699.812378 
	C145.365799,706.359070 148.337311,709.410767 154.791290,709.524597 
	C161.166306,709.637024 166.926544,707.357239 172.443283,704.605957 
	C196.280167,692.718323 214.188370,674.596191 227.504303,651.716553 
	C242.947739,625.181274 250.845673,596.267700 254.516663,566.027832 
	C256.787231,547.323853 256.988617,528.516052 257.747803,509.714050 
	C258.905029,481.054047 257.866577,452.404022 258.596130,423.766235 
	C260.718262,340.458679 258.959106,257.140900 259.514282,173.830063 
	C259.681976,148.665405 259.851257,123.493629 259.441437,98.334541 
	C259.115967,78.354111 258.292999,58.381458 258.522064,38.391319 
	C258.581238,33.227295 256.274872,29.128504 252.866608,25.459894 
	C245.511139,17.542627 236.208405,12.826180 226.261322,9.172788 
	C220.154312,6.929794 213.930420,5.065129 207.555984,3.722461 
	C205.948715,3.383918 204.212723,3.309746 203.018066,1.443915 
	C495.687592,1.000000 788.375183,1.000000 1081.531372,1.000000 
	C1082.504395,2.812761 1081.285034,3.861019 1080.114380,4.734654 
	C1074.657104,8.807220 1073.297607,14.813375 1072.461304,20.988548 
	C1071.254883,29.898024 1070.831543,38.921299 1070.599243,47.859905 
	C1070.283813,60.008141 1069.406372,72.129539 1069.185059,84.286469 
	C1068.918213,98.929237 1068.244507,113.566711 1068.288086,128.222885 
	C1068.303223,133.315918 1067.022339,134.666885 1061.996704,134.233047 
	C1043.751953,132.658066 1025.416016,133.129608 1007.170166,131.532837 
	C998.047913,130.734497 988.854980,131.624710 979.692383,131.008560 
	C975.571655,130.731445 972.863953,133.817642 970.966614,136.918243 
	C962.188965,151.262939 958.138672,166.906113 959.770813,183.697784 
	C960.555542,191.771667 963.179810,193.894424 971.042419,195.126450 
	C972.525818,195.358887 974.007507,195.657700 975.509460,195.612656 
	C990.507568,195.162842 1005.467712,196.560394 1020.446838,196.574631 
	C1032.779053,196.586365 1045.079468,197.060867 1057.383423,197.691635 
	C1062.204102,197.938766 1063.060425,198.842453 1063.319580,203.749374 
	C1063.839233,213.589569 1062.433716,223.375290 1062.400757,233.186142 
	C1062.267822,272.850250 1062.242676,312.515503 1062.409302,352.179382 
	C1062.458252,363.849091 1060.667725,375.558075 1061.574463,387.097260 
	C1063.416748,410.538666 1055.215698,431.364136 1046.335449,451.998993 
	C1037.461914,472.618530 1025.279541,491.336823 1010.630859,508.401947 
	C1006.823730,512.837036 1002.580811,516.839355 998.387817,520.890259 
	C997.073975,522.159485 995.462830,523.716492 993.596069,522.957031 
	C991.358276,522.046570 992.437073,519.733337 992.641174,518.080322 
	C994.015076,506.954498 994.359741,495.829803 992.716370,484.715424 
	C989.415527,462.391693 978.939514,443.632904 964.401794,426.692749 
	C948.927063,408.660706 929.506775,395.345825 910.967773,380.985901 
	C894.632568,368.332977 877.938232,356.142548 861.414734,343.731598 
	C855.538757,339.318024 855.505981,338.898712 860.119141,333.202942 
	C873.945801,316.131714 885.159546,297.498962 893.833191,277.310699 
	C898.920349,265.470337 901.361267,253.218323 900.653564,240.307190 
	C899.918152,226.891495 890.602356,215.846130 876.530334,212.657883 
	C851.357422,206.954483 828.182983,211.705551 807.371704,226.967346 
	C784.129944,244.011505 770.598816,267.123230 766.747498,295.544678 
	C763.960876,316.108582 768.869934,335.235138 782.201660,351.269135 
	C788.392212,358.714569 788.149963,364.597626 783.837524,372.691711 
	C757.659607,421.824951 730.639404,470.457458 700.411987,517.242126 
	C693.979065,527.198669 686.580750,536.431152 677.871338,544.555298 
	C675.292786,546.960510 672.617188,549.188171 669.379333,550.633667 
	C660.977356,554.384583 654.223450,551.703491 650.868286,543.113037 
	C647.938049,535.610535 646.502747,527.733765 645.738037,519.747192 
	C642.778870,488.842987 643.286743,457.837585 643.852234,426.880981 
	C644.222717,406.593842 644.924072,386.288605 645.791931,366.007721 
	C646.496216,349.549652 646.822449,333.060028 647.919861,316.644379 
	C648.652893,305.680145 648.417847,294.705719 649.377136,283.736633 
	C650.759338,267.931122 644.918884,254.608276 632.088623,244.841125 
	C618.066956,234.166977 602.873108,225.343277 586.033203,220.189575 
	C571.674866,215.795349 557.354614,218.068375 543.653320,224.158157 
	C525.269043,232.329437 511.596313,246.109818 499.534912,261.622345 
	C481.816315,284.410767 468.810974,309.902374 457.481812,336.336884 
	C446.440704,362.099304 438.098572,388.851837 428.244995,415.048340 
	C426.720123,419.102142 425.346161,423.215576 423.587402,427.175354 
	C423.047974,428.389832 422.180115,429.646240 420.564728,429.197266 
	C419.280304,428.840302 419.059753,427.535126 418.855469,426.371552 
	C418.652832,425.217682 418.662628,424.047546 418.662109,422.881317 
	C418.652435,401.049164 417.896851,379.184845 418.832031,357.392029 
	C420.397797,320.904938 418.975647,284.425446 419.743561,247.954346 
	C419.908569,240.115753 417.050232,235.106461 409.869415,231.837021 
	C392.734436,224.035385 375.292023,217.855743 356.083832,218.309662 
	C345.410278,218.561890 341.388916,222.365967 341.365204,233.231277 
	C341.307007,259.896423 342.010956,286.581818 341.206451,313.222809 
	C339.566345,367.535065 341.405884,421.859802 340.094482,476.148499 
	C339.486786,501.305176 339.272461,526.451477 339.558350,551.585388 
	C339.720490,565.840820 339.729187,580.238586 342.427429,594.380737 
	C344.221069,603.781799 346.903290,612.793579 352.838013,620.606018 
	C357.072998,626.180969 362.458466,629.876099 369.207550,631.287781 
	C382.682739,634.106140 396.296875,634.727600 409.932373,632.599304 
	C419.916473,631.040894 423.150269,627.830078 424.290222,617.719360 
	C430.791229,560.057922 447.076538,504.794861 465.479797,450.084076 
	C474.519745,423.209412 485.627228,397.124359 498.617981,371.908539 
	C512.155701,345.631042 527.529602,320.495850 546.880676,297.989929 
	C549.706787,294.703064 552.638062,291.468567 556.130310,288.891937 
	C560.011353,286.028442 562.915039,287.342926 563.195374,292.194824 
	C563.589478,299.013428 563.658813,305.873871 563.221680,312.683624 
	C562.251343,327.799103 561.882996,342.933929 561.224609,358.058441 
	C560.175293,382.160522 559.120789,406.260284 558.160645,430.366791 
	C557.213074,454.157104 555.691772,477.945435 556.464966,501.740417 
	C557.373352,529.691284 558.626770,557.680725 566.142700,584.893677 
	C568.949463,595.056274 572.632385,604.800232 578.661133,613.618286 
	C587.790344,626.971436 600.638062,632.946716 616.400940,633.651123 
	C631.695740,634.334473 645.231384,629.086182 657.834595,621.097046 
	C677.056335,608.912354 692.673340,592.821838 706.908997,575.241577 
	C723.218323,555.100342 736.857178,533.194519 750.053772,510.968964 
	C765.367493,485.177612 780.911804,459.523193 796.230591,433.735077 
	C803.294434,421.843689 810.423828,409.991211 817.467834,398.087982 
	C820.240540,393.402557 822.131653,393.017761 825.989197,396.683136 
	C843.010620,412.856689 861.098450,427.903656 877.299377,444.938385 
	C889.802124,458.084503 900.322083,472.610931 906.723450,489.771393 
	C913.951721,509.148407 914.728882,528.512451 905.676819,547.559631 
	C893.945312,572.245056 871.125854,577.979492 847.772278,567.847107 
	C836.672119,563.031067 826.883057,556.115479 817.378906,548.742004 
	C813.432190,545.680054 809.534424,542.499695 804.890015,540.504272 
	C797.110413,537.161865 789.901184,537.335754 782.968445,543.077759 
	C769.764282,554.014160 761.468628,567.934082 757.148499,584.301941 
	C754.547974,594.154541 757.344849,602.291321 765.790222,608.444885 
	C776.160828,616.001160 787.585388,621.380066 799.823181,624.913391 
	C827.433228,632.885010 855.676575,636.488098 884.341919,634.470886 
	C920.689392,631.913208 953.532715,619.696716 982.001282,596.494263 
	C1005.837830,577.067017 1024.228760,553.154053 1039.585938,526.756104 
	C1046.628906,514.649597 1052.706177,502.036377 1058.501953,489.287109 
	C1059.425537,487.255402 1060.060547,483.902191 1062.617310,484.285126 
	C1065.527466,484.721100 1065.069702,488.139099 1065.352051,490.566467 
	C1069.049316,522.363708 1075.281494,553.510925 1090.599487,582.046875 
	C1101.163086,601.726013 1115.337036,618.175537 1136.542603,626.884155 
	C1168.731323,640.103516 1197.449463,634.392090 1222.521240,610.106140 
	C1244.083984,589.219360 1259.453735,564.322266 1270.872437,536.772095 
	C1271.912231,534.263306 1272.197021,530.178650 1275.341553,530.195679 
	C1279.096436,530.215942 1278.780273,534.593811 1279.563965,537.251770 
	C1286.145020,559.569214 1295.854126,580.293945 1311.064575,598.060913 
	C1330.516479,620.782227 1355.196655,633.056519 1385.302124,633.629089 
	C1415.882812,634.210815 1442.191162,623.102356 1465.573608,603.994446 
	C1480.638794,591.683350 1492.014771,576.400146 1502.019897,559.931580 
	C1503.427124,557.615051 1504.390625,553.777832 1507.554077,554.303589 
	C1510.134277,554.732422 1509.564575,558.510071 1510.054932,560.828369 
	C1513.356201,576.433411 1519.576904,590.592590 1529.992554,602.822632 
	C1543.980347,619.247131 1561.700439,629.474915 1582.895874,632.408508 
	C1616.528687,637.063293 1643.036621,624.004272 1663.441162,597.493042 
	C1669.265625,589.925537 1673.772827,581.580383 1678.034912,573.072144 
	C1680.830688,567.491150 1682.380005,567.398438 1685.517944,572.886963 
	C1692.667236,585.391479 1700.731201,597.130859 1711.370728,607.006592 
	C1729.600342,623.927856 1751.012329,633.183044 1775.910645,633.600708 
	C1810.802612,634.185974 1840.069092,620.854309 1864.842041,596.778015 
	C1871.672729,590.139465 1878.062256,583.146790 1883.522217,575.324402 
	C1884.549805,573.851990 1885.596680,571.627075 1887.557739,572.120911 
	C1889.643066,572.646118 1889.380859,575.129639 1889.284424,576.885010 
	C1888.762085,586.402039 1890.590088,595.816406 1890.402954,605.324158 
	C1890.332031,608.923035 1889.198364,611.559204 1886.527344,614.041931 
	C1866.404785,632.746338 1846.010620,651.154297 1825.830811,669.794434 
	C1814.944702,679.849976 1804.399902,690.286499 1793.661743,700.501038 
	C1777.943848,715.452454 1763.105469,731.170593 1749.542725,748.065308 
	C1736.969604,763.727539 1725.875854,780.401001 1719.299194,799.553284 
	C1710.028442,826.551147 1709.612305,853.603149 1721.599976,879.905212 
	C1731.636963,901.927063 1749.479370,916.020569 1771.290649,925.452026 
	C1781.123535,929.703918 1791.434814,932.407043 1801.960327,934.334961 
	C1803.734863,934.660095 1805.726562,934.543274 1807.016357,936.600830 
z"/>
<path fill="#030304" opacity="1.000000" stroke="none" 
	d="
M1807.468628,937.000000 
	C1800.407593,934.585938 1793.373413,934.096313 1786.629272,932.153015 
	C1770.443726,927.489380 1755.806519,920.351074 1742.806396,909.464722 
	C1729.576538,898.385925 1720.778320,884.706116 1715.758179,868.367737 
	C1713.455566,860.874023 1712.610474,853.212463 1711.809692,845.414978 
	C1710.246704,830.197632 1712.495483,815.521179 1717.162720,801.314331 
	C1723.246826,782.794128 1733.588989,766.426697 1745.462158,751.040405 
	C1755.117432,738.528259 1766.068115,727.175537 1776.671021,715.486450 
	C1787.380615,703.679565 1799.489014,693.411621 1810.651001,682.125183 
	C1823.283691,669.351746 1836.892334,657.540527 1850.134399,645.374023 
	C1862.624756,633.898010 1875.115845,622.419617 1887.817993,611.181152 
	C1889.392456,609.788147 1888.894531,608.620300 1888.955566,607.352661 
	C1889.513794,595.746033 1886.941650,584.226135 1888.354614,571.353210 
	C1884.029053,576.080139 1881.403198,580.631897 1878.056641,584.591248 
	C1864.405640,600.741577 1848.786011,614.137329 1829.463867,623.302551 
	C1810.300049,632.392639 1790.276611,636.606873 1769.335449,634.826965 
	C1750.374268,633.215454 1733.131958,626.243225 1717.931274,614.480469 
	C1702.914551,602.860229 1692.255737,587.778625 1683.063477,571.474243 
	C1682.751221,570.920349 1682.548950,570.302002 1682.214478,569.764160 
	C1682.050659,569.500732 1681.699951,569.353394 1681.330566,569.075928 
	C1674.383301,584.802551 1665.699585,599.439026 1653.117310,611.260986 
	C1639.202393,624.335022 1622.792603,631.839050 1603.503418,634.233398 
	C1582.257568,636.870605 1563.572021,630.699524 1546.524414,619.579224 
	C1527.359741,607.077820 1515.516479,588.689941 1510.057373,566.401611 
	C1509.099365,562.490967 1507.450317,558.655151 1508.115112,553.669128 
	C1502.849243,559.457581 1499.992920,565.953613 1496.131348,571.731018 
	C1481.255493,593.986877 1462.347900,611.616821 1438.184082,623.277710 
	C1426.395630,628.966431 1413.984375,632.508667 1400.839844,634.165710 
	C1380.161865,636.772522 1360.614258,633.725159 1342.115356,624.505737 
	C1322.313110,614.636719 1307.818115,599.096741 1296.652222,580.218689 
	C1287.765259,565.193481 1281.084839,549.284424 1276.957764,532.309204 
	C1276.779907,531.578247 1276.208496,530.447876 1275.718018,530.391174 
	C1274.693481,530.272766 1274.334351,531.275818 1273.978760,532.250854 
	C1265.861816,554.513672 1254.305908,574.949707 1239.695801,593.491211 
	C1228.514648,607.680908 1215.598511,620.280640 1199.081787,628.401001 
	C1186.638062,634.518921 1173.642822,636.185425 1159.752808,634.223328 
	C1148.228271,632.595398 1137.424561,629.664368 1127.364502,623.870239 
	C1112.712158,615.431213 1101.762085,603.305359 1093.042847,589.077942 
	C1082.272949,571.504822 1075.710693,552.237061 1071.019775,532.287964 
	C1067.600342,517.745483 1064.927124,503.069000 1064.044067,488.124634 
	C1063.954102,486.603119 1063.166870,485.589264 1062.377930,483.922394 
	C1057.045288,496.432739 1051.165039,508.216827 1044.966187,519.825317 
	C1035.814575,536.963501 1024.992920,552.994568 1012.600464,568.005188 
	C1005.254211,576.903564 997.185730,585.088135 988.623352,592.697937 
	C973.559814,606.085693 956.559692,616.536072 937.762573,624.020874 
	C924.060120,629.477112 909.810364,633.066406 895.295532,634.795776 
	C879.398560,636.689880 863.357483,636.642273 847.303101,635.128601 
	C832.075623,633.692932 817.198914,630.790100 802.435242,627.010498 
	C787.589111,623.209778 774.088867,616.590942 761.926819,607.348511 
	C755.024231,602.102905 753.159546,591.670227 756.605042,580.835754 
	C761.849182,564.345581 770.628967,550.191895 784.757263,539.935242 
	C791.045105,535.370483 798.259216,535.924866 805.132690,539.046570 
	C812.872559,542.561829 819.048096,548.437134 825.823425,553.387634 
	C836.427063,561.135254 847.686035,567.515747 860.497070,570.774292 
	C874.125793,574.240845 890.727417,567.446533 899.085815,555.984558 
	C908.242615,543.427673 911.694153,529.288269 910.839539,514.266846 
	C909.847961,496.839081 903.082275,481.158051 893.290894,466.825134 
	C883.023621,451.795471 870.388367,438.929718 856.654907,427.054840 
	C851.791504,422.849579 847.467468,418.056519 842.533386,413.873535 
	C836.234009,408.533264 830.297180,402.741516 824.464050,396.885468 
	C821.714294,394.124908 820.722107,394.781006 818.927246,397.873383 
	C809.078552,414.841431 798.985901,431.667969 788.962036,448.534180 
	C779.184448,464.985931 769.530457,481.513336 759.567871,497.852478 
	C744.720520,522.202942 730.765808,547.128662 712.987854,569.598083 
	C704.007690,580.947876 694.988953,592.272888 684.318420,602.056519 
	C670.435425,614.785583 655.837830,626.690369 637.328003,632.175110 
	C618.551819,637.738892 600.542969,636.348755 585.069824,623.317383 
	C578.250244,617.573975 573.490173,609.667664 570.197388,601.341431 
	C564.182617,586.132019 560.828979,570.249756 558.881409,553.977356 
	C557.257874,540.412109 556.689697,526.820374 555.752930,513.225342 
	C554.722534,498.271729 554.806580,483.349091 555.177795,468.456512 
	C555.651489,449.452484 556.404602,430.442871 557.158813,411.444214 
	C557.747864,396.606628 558.492981,381.769562 559.128784,366.928711 
	C559.821655,350.757324 560.337463,334.570129 561.263123,318.423645 
	C561.737366,310.151581 561.634949,301.902466 561.962158,293.649902 
	C562.036865,291.764130 562.864868,289.127014 560.609680,288.304565 
	C558.777161,287.636230 557.129578,289.462341 555.674500,290.810211 
	C547.926208,297.987671 541.302063,306.196899 535.147339,314.671356 
	C519.127869,336.728638 505.289276,360.150085 493.686310,384.828461 
	C484.545197,404.270599 476.295319,424.088684 468.944366,444.301575 
	C455.257782,481.935486 444.770966,520.495178 435.433044,559.366943 
	C432.152893,573.021484 429.461121,586.864624 427.851166,600.901611 
	C426.981995,608.479736 426.271149,616.123169 424.887543,623.625122 
	C423.655792,630.303955 417.676392,632.853577 412.185150,633.708984 
	C397.044739,636.067078 381.808960,635.949646 366.820221,632.006653 
	C356.155701,629.201111 350.134186,621.308716 346.111633,611.891357 
	C340.613159,599.018677 339.591248,585.266235 338.893799,571.391846 
	C337.481964,543.306274 337.354706,515.190369 338.197327,487.138306 
	C339.772064,434.713135 337.717346,382.277588 339.243011,329.889099 
	C340.202179,296.952881 339.408264,264.043945 339.985321,231.128342 
	C340.145142,222.012894 345.099915,217.252655 354.188934,216.950638 
	C375.921875,216.228531 395.593384,222.996750 414.491669,232.892670 
	C418.853424,235.176682 420.943420,238.841873 420.954529,243.498611 
	C421.037964,278.496613 421.824982,313.520874 420.723450,348.484375 
	C419.927277,373.755737 420.576660,398.999298 420.015533,424.248016 
	C419.981049,425.801453 420.170502,427.359863 420.305115,429.816711 
	C423.912354,426.125488 424.371155,421.937286 425.678070,418.423523 
	C433.719635,396.802643 441.055206,374.919067 449.104858,353.301331 
	C453.354034,341.889984 458.509766,330.820709 463.557953,319.713867 
	C471.782867,301.617706 481.520813,284.457428 492.994354,268.270081 
	C506.256470,249.559357 521.350647,232.716751 542.775269,223.083450 
	C559.576965,215.528809 576.719421,214.085831 594.145020,221.545029 
	C607.817322,227.397568 620.937927,234.334183 632.612488,243.441650 
	C642.121155,250.859451 649.175415,260.215118 650.127319,273.264648 
	C651.100342,286.603577 649.992249,299.794342 649.034851,313.031708 
	C648.986877,313.695435 649.014832,314.364441 648.999329,315.030762 
	C648.666931,329.282898 648.703796,343.555634 647.911865,357.782196 
	C646.770813,378.279388 646.812073,398.818726 645.757263,419.288513 
	C644.531982,443.066620 644.728943,466.829895 645.307800,490.548370 
	C645.702637,506.724701 646.174133,523.061157 650.775757,539.028870 
	C655.567993,555.657776 666.984619,552.636230 675.501526,544.945496 
	C687.359985,534.237488 696.530762,521.338440 704.987122,507.917114 
	C717.246948,488.459259 728.646851,468.492004 740.240417,448.632263 
	C756.063354,421.527618 771.063110,394.003967 785.470398,366.136688 
	C787.362671,362.476654 787.238220,360.015930 784.325745,356.601471 
	C769.505981,339.227417 762.374756,318.956573 765.168762,296.174255 
	C767.602722,276.327209 775.362732,258.502991 788.391174,242.911636 
	C797.344421,232.197083 807.835938,223.659210 820.149719,217.509750 
	C833.772095,210.706802 848.498596,207.780106 863.673645,209.154282 
	C872.882202,209.988174 882.135742,211.374573 890.034424,217.380112 
	C897.533752,223.082153 901.145142,230.662155 901.926941,239.588608 
	C903.843994,261.476685 894.965698,280.330750 884.756470,298.797974 
	C879.130554,308.974579 872.955444,318.772064 865.969910,328.054352 
	C863.713684,331.052490 861.352478,334.014160 858.708679,336.662415 
	C857.104614,338.269104 857.182068,339.116394 858.853210,340.367920 
	C877.795471,354.554321 896.752197,368.721802 915.637329,382.984009 
	C927.191956,391.710144 938.688721,400.482178 949.687927,409.952667 
	C961.594727,420.204590 971.382935,432.066620 979.652649,445.242340 
	C987.258179,457.359772 992.027954,470.573517 994.069824,484.827606 
	C995.723022,496.368195 995.095825,507.823303 993.967468,519.310547 
	C993.862549,520.378723 993.350952,521.406921 992.984802,522.594543 
	C994.816833,522.338745 996.012390,521.439697 997.212219,520.332458 
	C1009.926575,508.600342 1020.544495,495.067505 1029.673462,480.516083 
	C1040.708130,462.927399 1049.694092,444.237183 1055.357300,424.144531 
	C1057.495117,416.559845 1060.134399,408.902893 1060.666748,401.149933 
	C1061.061279,395.406219 1059.790161,389.352997 1060.038208,383.434875 
	C1062.213745,331.527588 1060.202026,279.594116 1061.205322,227.686859 
	C1061.364502,219.458313 1061.734009,211.181000 1062.047729,202.927490 
	C1062.153687,200.141724 1061.746094,199.079361 1058.419800,198.869614 
	C1042.169922,197.844864 1025.869141,198.766190 1009.670410,197.763153 
	C997.721985,197.023285 985.814453,197.441483 973.899658,196.985794 
	C962.380371,196.545227 958.123596,191.802094 957.971619,179.942657 
	C957.778259,164.849854 961.449036,150.810196 968.785583,137.657623 
	C972.417664,131.146210 975.741211,129.297501 983.071411,129.983902 
	C984.227966,130.092194 985.405640,130.049164 986.569458,129.992477 
	C1001.179565,129.280762 1015.779114,130.522446 1030.306274,131.347549 
	C1040.802979,131.943741 1051.428833,130.731522 1061.843262,132.976120 
	C1065.684937,133.804092 1067.900513,132.608200 1067.027466,128.151001 
	C1066.838867,127.187981 1067.033813,126.155167 1066.994873,125.156731 
	C1066.267822,106.552132 1067.993408,87.995796 1068.213623,69.403450 
	C1068.367188,56.415920 1069.203979,43.369617 1070.254883,30.406818 
	C1070.655396,25.467070 1070.446045,20.358036 1071.903442,15.394722 
	C1073.630981,9.511946 1076.620483,4.869195 1081.922607,1.339848 
	C1088.021118,1.000000 1094.042358,1.000000 1100.531738,1.000000 
	C1117.868896,2.460999 1134.016235,6.798650 1149.673096,13.137252 
	C1167.377441,20.304724 1168.927856,21.819553 1168.273682,40.609932 
	C1167.579346,60.557716 1166.925537,80.518898 1165.640381,100.449135 
	C1165.019531,110.078499 1165.677979,119.768135 1164.448242,129.384995 
	C1164.008057,132.827835 1165.572754,134.319839 1169.155151,134.876129 
	C1175.770996,135.903458 1182.454834,135.880081 1189.071289,136.276001 
	C1198.193604,136.821899 1207.339111,137.406464 1216.490234,137.733734 
	C1236.932495,138.464859 1257.414551,138.994507 1277.735718,141.713898 
	C1288.375488,143.137741 1292.028320,146.879379 1292.277588,157.664963 
	C1292.544189,169.198242 1289.557495,180.072327 1284.314819,190.349686 
	C1280.437134,197.951080 1274.392578,201.532318 1265.795532,201.449265 
	C1250.298218,201.299545 1234.773193,200.858643 1219.305176,201.557831 
	C1202.151367,202.333206 1185.010620,202.350769 1167.859863,202.393616 
	C1164.115234,202.402969 1162.425537,203.843201 1162.395996,207.704590 
	C1162.248657,226.848007 1160.786987,245.944366 1160.252441,265.081726 
	C1159.676147,285.709015 1158.906128,306.335571 1158.238647,326.963593 
	C1157.355591,354.256561 1156.786621,381.547302 1156.254028,408.846893 
	C1155.893311,427.327301 1154.966309,445.815186 1155.524048,464.285614 
	C1156.126831,484.246399 1157.146484,504.226379 1161.528076,523.836670 
	C1163.788330,533.952820 1166.643311,543.854187 1171.575928,553.052856 
	C1172.840698,555.411499 1174.236328,557.669495 1175.874756,559.783325 
	C1182.333618,568.116394 1188.899170,570.037476 1198.696655,566.340332 
	C1207.813843,562.899902 1215.252930,556.958374 1221.556519,549.765259 
	C1244.402466,523.695862 1258.435059,493.252228 1265.002319,459.384460 
	C1266.674561,450.761108 1266.011230,441.790863 1266.453369,432.987762 
	C1268.468384,392.863922 1273.744873,353.334320 1287.310547,315.321106 
	C1298.452881,284.098633 1315.228760,256.221802 1339.896240,233.795197 
	C1371.063232,205.459595 1413.051514,200.358093 1449.491333,216.511002 
	C1464.608154,223.211929 1476.877441,234.126144 1487.270630,247.034622 
	C1488.057495,248.011826 1488.533813,249.376221 1490.251343,249.796265 
	C1490.874512,247.664627 1490.551758,245.521545 1490.578125,243.426483 
	C1490.728638,231.475006 1498.506104,222.336670 1510.402588,221.853683 
	C1531.254639,221.007111 1551.185425,225.187683 1569.546021,235.459595 
	C1576.919678,239.584808 1580.624878,245.725052 1580.548218,254.679520 
	C1580.385742,273.667023 1579.514893,292.634216 1579.176025,311.614532 
	C1578.778076,333.905548 1578.242310,356.222931 1577.219116,378.490295 
	C1575.787109,409.649567 1576.448486,440.793884 1576.580078,471.934052 
	C1576.678711,495.239563 1578.451172,518.529175 1583.460205,541.413757 
	C1585.682373,551.565918 1588.808228,561.379639 1595.173706,569.846436 
	C1604.693970,582.509705 1622.018188,584.125671 1633.859009,573.585083 
	C1647.870239,561.112549 1654.807129,544.633301 1660.414917,527.362061 
	C1662.766968,520.117432 1663.258301,512.929749 1661.912720,505.258026 
	C1657.397217,479.511658 1657.901611,453.428589 1658.784790,427.486084 
	C1659.979248,392.407990 1664.951538,357.779602 1676.565308,324.441406 
	C1686.607788,295.613708 1699.625122,268.308746 1719.933838,245.091446 
	C1749.612671,211.161987 1791.194458,198.967712 1833.937012,213.468002 
	C1851.578247,219.452759 1865.285156,231.476196 1877.440796,245.297241 
	C1878.319580,246.296356 1879.019897,247.448029 1880.027710,248.338226 
	C1880.286011,248.566193 1880.583008,248.679367 1880.939209,248.677872 
	C1881.838135,247.916534 1881.586792,246.841995 1881.574219,245.890320 
	C1881.337769,227.979614 1894.792847,221.936127 1906.358765,221.705750 
	C1921.523926,221.403671 1936.152588,224.713028 1950.347656,229.874420 
	C1973.855591,238.422150 1973.019043,245.001266 1972.122925,264.821991 
	C1971.875122,270.300903 1971.594727,275.784821 1971.382446,281.272675 
	C1970.474731,304.745209 1970.963379,328.247620 1970.233032,351.706696 
	C1968.484619,407.854279 1970.010376,464.001373 1969.414307,520.144104 
	C1969.410400,520.509888 1969.498413,520.804504 1969.894897,521.192261 
	C1975.589844,514.271851 1980.168579,506.614014 1984.870850,499.069885 
	C1997.654297,478.559814 2010.221558,457.886993 2020.770752,436.132263 
	C2037.885742,400.837128 2052.540771,364.570190 2062.256836,326.437195 
	C2063.658691,320.934906 2062.741211,317.341034 2058.297607,313.392334 
	C2042.994019,299.793335 2036.222656,282.665741 2038.424561,262.022003 
	C2040.453979,242.994156 2046.842529,226.133972 2060.874512,212.613754 
	C2076.204834,197.842926 2105.295654,192.986618 2124.448730,202.214050 
	C2136.448242,207.994995 2142.527100,217.961441 2144.326904,230.886703 
	C2145.560547,239.747101 2144.373291,248.486862 2143.223633,257.237244 
	C2142.505859,262.701508 2142.839600,263.148285 2148.202637,262.312408 
	C2169.612305,258.975647 2190.934326,255.154724 2212.107178,250.524841 
	C2224.334717,247.851059 2236.495605,246.060638 2249.218262,247.433517 
	C2276.082520,250.332458 2289.730713,274.156708 2286.886963,296.240784 
	C2284.114746,317.772125 2278.089355,338.640076 2273.666016,359.834442 
	C2267.498291,389.385071 2262.608398,419.011719 2261.133057,449.279541 
	C2259.858643,475.428925 2261.472656,501.175476 2266.560303,526.754883 
	C2269.008789,539.064880 2272.932617,550.919861 2279.439697,561.775879 
	C2281.676758,565.508423 2284.367920,568.889587 2287.463623,571.958618 
	C2298.037354,582.440796 2312.531006,583.437500 2324.677002,574.640259 
	C2332.620850,568.886475 2337.817383,560.995117 2342.109619,552.458984 
	C2346.011963,544.698608 2348.803467,536.482971 2350.913818,528.048035 
	C2351.864258,524.249207 2351.671143,520.454651 2350.959717,516.644531 
	C2347.929199,500.412354 2346.246338,484.059845 2345.360352,467.550476 
	C2344.796875,457.054352 2344.287842,446.565765 2344.673828,436.102844 
	C2346.190918,394.997925 2350.751221,354.353363 2365.239014,315.457489 
	C2375.579834,287.695129 2389.562744,261.792755 2410.330811,240.581543 
	C2440.921143,209.338562 2477.903076,199.788452 2519.826416,213.450500 
	C2538.231689,219.448364 2552.221191,232.244125 2564.737305,246.638840 
	C2565.703125,247.749542 2566.304688,249.203476 2568.053955,250.065964 
	C2568.992432,248.006622 2568.554932,245.881653 2568.567139,243.857422 
	C2568.651611,229.882065 2575.876221,222.263901 2589.975342,221.658737 
	C2604.667725,221.028122 2618.785645,224.184570 2632.680420,228.581680 
	C2638.596436,230.453903 2644.136475,233.155350 2649.292236,236.586563 
	C2655.391357,240.645386 2658.639648,246.102036 2658.475098,253.762695 
	C2657.852295,282.723083 2657.319336,311.705566 2656.096436,340.626129 
	C2654.061523,388.758759 2654.068359,436.888336 2654.697510,485.006836 
	C2654.994873,507.741882 2656.617676,530.632202 2663.143799,552.743469 
	C2664.803467,558.366577 2667.034912,563.751770 2670.232422,568.678955 
	C2678.742920,581.793335 2694.746338,584.526550 2707.172363,575.080688 
	C2714.047607,569.854187 2719.332520,563.223389 2723.843994,555.980103 
	C2738.313721,532.747864 2746.719727,507.218170 2752.111816,480.570099 
	C2752.645264,477.934723 2752.585449,475.265320 2752.585693,472.599396 
	C2752.587402,452.600433 2752.790283,432.598999 2752.546875,412.602997 
	C2751.936279,362.450043 2753.903076,312.320221 2753.792480,262.169067 
	C2753.770752,252.395035 2754.287598,242.541245 2754.697998,232.731171 
	C2755.131592,222.361084 2761.489746,216.137375 2771.866211,215.661011 
	C2782.150879,215.188843 2792.036865,217.858765 2801.977539,219.897217 
	C2809.321045,221.403168 2816.600586,223.256424 2823.800781,225.349838 
	C2835.697510,228.808594 2841.388672,236.420395 2841.399414,248.814758 
	C2841.435547,290.479218 2841.412109,332.143738 2841.415039,373.808228 
	C2841.415039,375.134216 2841.365479,376.462830 2841.481201,378.478973 
	C2848.267578,358.365875 2854.749512,338.867859 2861.206543,319.362000 
	C2869.431641,294.513977 2878.102051,269.837616 2889.088379,246.043625 
	C2892.448730,238.766083 2896.409180,231.836090 2901.366211,225.494614 
	C2905.713867,219.933090 2911.463623,216.421677 2918.335205,215.966049 
	C2946.221436,214.117096 2970.804199,221.831726 2990.067383,242.853714 
	C2997.179199,250.614944 2999.707275,260.555328 3000.410889,270.960846 
	C3001.726807,290.425964 3000.765137,309.940308 3001.566895,329.394226 
	C3002.539551,352.991730 3003.211670,376.611145 3005.129150,400.177765 
	C3006.316162,414.769226 3007.805908,429.340546 3008.734131,444.272095 
	C3014.443359,406.602570 3023.981201,370.147552 3035.005859,334.052856 
	C3044.652832,302.468872 3056.225342,271.575958 3068.707275,241.019302 
	C3073.356689,229.636658 3080.336670,220.443527 3092.814697,216.737656 
	C3098.714355,214.985519 3104.862305,214.800674 3110.651367,215.995514 
	C3133.218262,220.653259 3154.630859,228.404388 3172.862793,242.996063 
	C3181.722656,250.086746 3186.713135,259.555389 3186.399414,271.255127 
	C3185.774902,294.543365 3184.778564,317.817261 3183.528809,341.080292 
	C3183.492920,341.745941 3183.432861,342.411133 3183.437256,343.077606 
	C3183.645996,373.896088 3181.279297,404.707092 3182.537109,435.509888 
	C3183.670166,463.257324 3183.338867,491.143250 3188.390137,518.624390 
	C3190.685547,531.113220 3193.758545,543.370056 3199.282715,554.902954 
	C3201.897217,560.361084 3205.089111,565.405090 3209.304688,569.750671 
	C3219.417480,580.174866 3232.998779,579.788574 3242.528809,568.721741 
	C3246.904785,563.640137 3250.253418,557.887024 3252.821533,551.672607 
	C3259.088135,536.510437 3263.017334,520.676880 3266.523193,504.708771 
	C3267.916992,498.360168 3269.535889,492.069275 3272.863770,486.357208 
	C3276.271484,480.508270 3281.109375,477.196259 3288.026123,477.863892 
	C3294.185059,478.458344 3298.673340,483.078400 3300.769531,490.619019 
	C3301.000000,499.687592 3301.000000,508.375153 3301.000000,517.531372 
	C3299.780762,535.878479 3295.541504,553.089905 3289.653320,569.955872 
	C3284.043457,586.026123 3276.300537,600.970093 3264.652832,613.422180 
	C3251.631104,627.342834 3235.373535,635.603210 3216.137207,636.249573 
	C3181.090332,637.427307 3154.129639,622.297485 3134.306152,593.874512 
	C3118.967285,571.881775 3111.936768,546.780945 3107.748047,520.728577 
	C3104.150391,498.350677 3102.378174,475.804352 3101.512207,453.147308 
	C3100.596191,429.192169 3098.856445,405.216736 3099.868896,381.279663 
	C3100.642578,362.983185 3099.574219,344.637756 3101.547607,326.389984 
	C3101.721924,324.777435 3101.728271,323.135406 3101.334717,320.724792 
	C3098.375488,326.038116 3096.496338,330.967651 3094.394775,335.778625 
	C3070.975098,389.388092 3055.140869,445.181702 3046.398682,503.005310 
	C3042.388184,529.531860 3038.731934,556.097046 3039.387207,583.027344 
	C3039.574951,590.749634 3035.829346,595.958374 3029.496094,599.700867 
	C3027.629150,600.803894 3025.687012,601.882996 3023.573975,602.338867 
	C3008.304688,605.633118 2993.000000,606.294800 2978.511475,599.609619 
	C2961.869629,591.931030 2952.373535,577.949829 2947.090820,560.831543 
	C2943.247070,548.376831 2940.995605,535.559937 2938.922363,522.731567 
	C2935.068115,498.882019 2932.663330,474.863037 2930.452881,450.804779 
	C2928.549561,430.085785 2927.208984,409.333435 2925.918457,388.582886 
	C2925.330811,379.132843 2924.485352,369.635468 2924.722656,360.159973 
	C2924.986084,349.638031 2923.526855,339.213409 2923.567627,328.719025 
	C2923.572998,327.305664 2923.855225,325.366364 2922.001709,324.925018 
	C2920.304443,324.520782 2919.342529,326.151215 2918.552002,327.356293 
	C2913.057129,335.733521 2908.330811,344.560333 2904.284912,353.701019 
	C2885.711670,395.662354 2872.610596,439.306793 2865.074219,484.560059 
	C2862.229492,501.639893 2861.147461,518.937683 2860.293213,536.247009 
	C2859.275146,556.866089 2858.646729,577.487183 2858.121582,598.122131 
	C2857.941895,605.181824 2857.956299,612.421814 2856.086426,619.446899 
	C2853.933838,627.534485 2849.184326,632.517761 2840.812012,633.943665 
	C2816.055664,638.159973 2791.740479,638.299805 2768.510010,626.804321 
	C2762.013916,623.589661 2758.148193,618.858215 2757.157959,611.543701 
	C2755.529297,599.516846 2754.435791,587.474304 2754.569092,575.506287 
	C2747.006104,592.526978 2737.387939,608.502686 2722.528564,620.408691 
	C2698.935059,639.312988 2672.374512,640.713074 2645.054688,630.714050 
	C2617.414307,620.597656 2599.234619,600.596802 2589.401123,572.954712 
	C2587.619629,567.946655 2585.830322,562.930054 2585.028076,557.520020 
	C2583.165527,558.188965 2582.816406,559.765015 2582.138184,560.961609 
	C2575.203369,573.195374 2567.305176,584.826538 2557.388428,594.753540 
	C2529.785889,622.384827 2497.057373,638.822693 2457.156738,636.103394 
	C2423.932129,633.839050 2398.420166,617.163696 2379.465332,590.112793 
	C2376.979980,586.566101 2374.486328,583.010315 2372.535400,579.126038 
	C2371.002197,576.073425 2369.768311,576.360291 2368.355957,579.259705 
	C2362.065186,592.172913 2353.143311,603.086792 2342.648438,612.782837 
	C2325.780762,628.366516 2306.147461,637.542175 2282.903320,636.176392 
	C2260.941162,634.885986 2241.724609,625.968018 2224.729736,612.104431 
	C2201.793701,593.394531 2189.221191,568.389771 2181.555176,540.552307 
	C2176.765869,523.161316 2174.578369,505.341400 2173.421387,487.306458 
	C2172.662109,475.470093 2172.397461,463.655914 2172.734619,451.859741 
	C2173.621094,420.847992 2177.179688,390.091400 2182.979248,359.609192 
	C2185.190918,347.986176 2187.572998,336.395752 2190.330322,324.884827 
	C2191.775879,318.851135 2190.606445,317.078339 2184.243652,317.457397 
	C2166.794189,318.496979 2149.293213,317.888763 2131.857666,319.327667 
	C2128.295410,319.621643 2127.062012,321.626831 2126.102539,324.509186 
	C2120.096436,342.548950 2113.068115,360.202209 2105.406250,377.588928 
	C2086.900879,419.581421 2065.779541,460.192932 2041.072754,498.912415 
	C2020.778442,530.716797 1998.293823,560.883606 1973.847290,589.595886 
	C1971.026611,592.908813 1970.324463,596.537659 1970.331543,600.682434 
	C1970.403931,642.829773 1972.748047,684.989014 1971.182251,727.110352 
	C1969.522095,771.773804 1963.530762,815.984985 1944.963135,857.146301 
	C1927.333862,896.227600 1897.369629,922.363220 1856.015259,934.854431 
	C1851.359375,936.260742 1846.502441,936.387634 1841.336426,936.769897 
	C1829.979126,937.000000 1818.958130,937.000000 1807.468628,937.000000 
z"/>
<path fill="#FFFFFF" opacity="1.000000" stroke="none" 
	d="
M3301.000000,490.531342 
	C3299.820068,490.591614 3299.307861,489.797791 3298.952393,488.542755 
	C3297.422607,483.141632 3293.392334,479.987579 3288.215332,479.141724 
	C3282.535400,478.213654 3277.873047,480.709869 3274.744629,485.743561 
	C3269.520996,494.147278 3268.275146,503.824432 3266.045410,513.156555 
	C3261.824219,530.823914 3257.394043,548.414917 3247.934814,564.177917 
	C3243.139893,572.168640 3236.213623,578.046753 3226.727051,578.807129 
	C3217.370117,579.557190 3210.443848,574.323364 3204.983887,566.999939 
	C3195.412598,554.161438 3191.163330,539.243774 3188.018555,523.901855 
	C3185.924316,513.685242 3184.841553,503.343994 3183.870605,492.950134 
	C3182.376953,476.954803 3182.753174,460.907196 3181.768555,444.939178 
	C3180.508057,424.492065 3180.685791,404.055481 3181.307373,383.677094 
	C3181.737305,369.582581 3180.976807,355.443359 3182.196045,341.427185 
	C3183.047607,331.638580 3182.352051,321.881622 3183.077148,312.157837 
	C3184.034668,299.327209 3184.542725,286.488770 3185.111572,273.640869 
	C3185.775146,258.652863 3178.759521,247.978821 3167.102783,240.105148 
	C3150.000732,228.553162 3130.957764,220.592621 3110.759277,217.380371 
	C3091.515625,214.319962 3079.279297,219.675201 3070.530273,240.305130 
	C3059.399170,266.551849 3049.580322,293.355194 3040.782227,320.515625 
	C3032.612793,345.734772 3025.274902,371.199341 3019.202393,396.974091 
	C3015.093750,414.414032 3011.239746,431.991180 3009.625244,450.432922 
	C3006.791748,448.173157 3007.469971,444.887177 3007.284668,442.741455 
	C3006.593994,434.741791 3005.537598,426.765228 3005.046875,418.753540 
	C3003.949463,400.836243 3002.232422,382.964600 3001.734619,364.993225 
	C3001.581055,359.450500 3001.368164,353.811432 3000.993408,348.228241 
	C2999.634766,327.991882 3000.749268,307.691284 2999.689453,287.486908 
	C2999.207520,278.298737 2999.813232,268.950775 2997.231445,259.708038 
	C2994.190674,248.823578 2987.905762,240.393921 2979.263916,234.248718 
	C2961.621582,221.703079 2941.713379,215.469452 2919.819824,217.035553 
	C2908.325195,217.857834 2901.920166,225.559830 2896.654541,234.765533 
	C2886.246338,252.961945 2878.929932,272.501862 2872.107666,292.188080 
	C2861.711182,322.188812 2851.929199,352.402405 2841.856201,382.515625 
	C2841.787842,382.721161 2841.300537,382.786652 2840.699219,383.056152 
	C2839.456787,381.536682 2840.031250,379.684052 2840.030029,378.040314 
	C2839.992188,335.208008 2839.774170,292.373688 2840.151367,249.544662 
	C2840.251465,238.153839 2834.336670,228.960175 2821.488525,225.946487 
	C2807.673096,222.705948 2793.910156,219.182526 2779.862549,217.169556 
	C2775.599121,216.558640 2771.059814,216.346176 2766.669678,217.938492 
	C2760.078613,220.329254 2756.221680,225.314957 2755.992676,232.324554 
	C2755.145752,258.237244 2755.469971,284.171906 2754.856689,310.078186 
	C2753.537354,365.832092 2754.387207,421.585358 2753.885498,477.335236 
	C2753.811523,485.550873 2750.984375,493.522400 2748.758301,501.409943 
	C2744.749756,515.614685 2739.591064,529.440430 2733.020264,542.693481 
	C2727.905273,553.009766 2721.680176,562.619324 2714.139404,571.326416 
	C2704.443848,582.521301 2690.473145,585.153503 2677.713379,578.204102 
	C2670.381104,574.210632 2666.911377,567.066772 2664.108398,559.816040 
	C2659.243652,547.232178 2657.389160,533.979492 2655.900391,520.585388 
	C2650.712646,473.897369 2653.537109,427.068512 2653.299805,380.309143 
	C2653.243896,369.282654 2652.958496,358.067108 2654.168945,347.071472 
	C2655.503418,334.952087 2653.954590,322.819702 2655.160889,310.811249 
	C2656.361084,298.862946 2655.126465,286.911591 2656.187988,275.054169 
	C2656.794678,268.273285 2656.461426,261.506775 2657.083740,254.786972 
	C2657.960693,245.315903 2652.957275,239.950699 2645.386719,235.778351 
	C2632.883057,228.887390 2619.327637,225.857407 2605.346924,223.905502 
	C2598.125000,222.897232 2590.995850,222.274033 2583.902588,224.045639 
	C2575.873047,226.051041 2569.491211,231.731964 2569.971680,241.276031 
	C2570.147461,244.767105 2570.025146,248.274780 2569.978760,251.774094 
	C2569.969238,252.506226 2570.379883,253.508301 2569.251953,253.852051 
	C2568.228516,254.163971 2567.686035,253.307999 2567.260986,252.703903 
	C2558.469482,240.209671 2547.454834,230.089890 2534.516602,222.042496 
	C2523.381348,215.116455 2511.231934,211.326080 2498.192871,209.894104 
	C2492.928467,209.315979 2487.704102,208.851929 2482.431641,209.014114 
	C2461.105469,209.670059 2442.030762,216.578644 2425.000488,229.449249 
	C2406.975586,243.071609 2394.425781,261.098236 2383.234619,280.308167 
	C2371.421631,300.586029 2363.227295,322.322815 2357.600342,344.994873 
	C2354.133789,358.963287 2351.431641,373.112976 2349.891846,387.492828 
	C2348.527344,400.231842 2347.732422,412.988647 2346.739502,425.742798 
	C2345.847168,437.205536 2345.560059,448.661743 2346.212891,460.008209 
	C2347.335205,479.514191 2348.564209,499.043091 2352.778564,518.293396 
	C2354.854248,527.773071 2350.026367,536.678223 2346.809814,545.446960 
	C2343.574951,554.265808 2338.970947,562.495300 2332.749512,569.510010 
	C2321.584473,582.098572 2301.803711,588.458984 2286.893799,573.492859 
	C2275.091064,561.645203 2269.911133,546.656738 2266.088867,531.081177 
	C2262.236084,515.379944 2260.477295,499.380493 2259.745117,483.170624 
	C2259.364990,474.745239 2258.531982,466.262115 2259.171631,457.914734 
	C2260.295898,443.233521 2260.821777,428.522766 2262.698975,413.851868 
	C2264.802490,397.411713 2267.926758,381.206787 2271.088623,364.995270 
	C2273.831543,350.933807 2277.469238,337.049408 2280.443604,323.029907 
	C2282.761719,312.103210 2286.273926,301.256897 2285.891113,289.991455 
	C2285.207520,269.885529 2274.088867,253.166946 2251.674316,249.059921 
	C2237.739746,246.506638 2224.085938,249.215179 2210.520752,252.177994 
	C2197.105225,255.108093 2183.679688,257.942535 2170.099121,260.051025 
	C2160.524658,261.537537 2151.066895,263.764832 2140.995117,264.364990 
	C2141.252441,256.957733 2142.966309,249.443924 2143.256836,241.770981 
	C2143.631592,231.866730 2142.695557,222.391144 2136.706787,214.345703 
	C2125.777588,199.663376 2110.336914,197.640869 2093.496094,199.774323 
	C2083.564209,201.032532 2074.320312,203.702774 2066.287598,209.954147 
	C2055.594727,218.275879 2048.324707,228.957504 2044.012573,241.714767 
	C2041.200684,250.033173 2039.496826,258.719421 2039.201050,267.367615 
	C2038.760620,280.235504 2042.408447,292.277954 2050.276367,302.770294 
	C2053.730225,307.376282 2057.413086,311.760925 2062.372559,314.860535 
	C2065.247314,316.657104 2065.603027,319.502106 2064.880371,322.295776 
	C2058.043701,348.727386 2049.384277,374.545074 2038.762939,399.711426 
	C2032.581055,414.359161 2026.293457,428.972595 2018.912598,443.040192 
	C2007.924561,463.982941 1996.008179,484.417114 1983.177734,504.298187 
	C1978.505737,511.537598 1973.640381,518.652283 1968.000000,525.530579 
	C1968.000000,523.956055 1968.000000,522.381470 1968.000000,520.806946 
	C1968.000000,467.641510 1967.454468,414.467621 1968.279663,361.315002 
	C1968.591431,341.230804 1967.971680,321.101166 1969.236816,301.068512 
	C1969.886108,290.784912 1969.233276,280.514801 1970.150146,270.309296 
	C1970.578003,265.545929 1970.639648,260.782471 1971.062744,256.043243 
	C1972.061646,244.849945 1966.856079,238.079117 1956.809204,233.923187 
	C1940.789185,227.296402 1924.253296,222.990311 1906.891479,223.108978 
	C1893.486206,223.200607 1882.097046,230.354767 1882.984985,246.772781 
	C1883.095215,248.812424 1883.000000,250.863190 1882.503662,253.015259 
	C1877.602905,247.453186 1872.774292,242.219131 1867.724243,237.167694 
	C1853.216553,222.656265 1836.034546,213.039536 1815.718140,210.128082 
	C1785.209106,205.755966 1757.888184,213.172134 1734.053223,233.322388 
	C1714.206665,250.101120 1701.176514,271.602356 1690.189575,294.547607 
	C1679.817993,316.207886 1672.537231,338.928986 1667.890991,362.548279 
	C1665.058228,376.948853 1663.411011,391.432098 1661.800659,405.998779 
	C1659.220093,429.341858 1659.756226,452.704071 1660.275024,476.026489 
	C1660.554932,488.613281 1661.992065,501.323547 1664.782349,513.797241 
	C1665.829346,518.477478 1663.293457,523.402832 1661.799072,527.877930 
	C1656.147827,544.802185 1649.101440,560.859558 1635.917358,573.881531 
	C1622.127808,587.501648 1600.524658,582.646790 1591.876343,567.762878 
	C1585.086060,556.076538 1582.057495,543.422607 1579.982544,530.338745 
	C1577.617432,515.426392 1576.628296,500.430298 1575.830566,485.348053 
	C1574.088989,452.420288 1575.134888,419.496124 1575.304810,386.584595 
	C1575.355713,376.711823 1575.226074,366.712799 1576.079712,356.832123 
	C1577.181641,344.079926 1576.198975,331.266052 1577.241455,318.587433 
	C1578.046875,308.792969 1577.685425,299.062408 1577.968384,289.308899 
	C1578.299927,277.889618 1578.942017,266.483307 1579.209351,255.057022 
	C1579.429565,245.649841 1575.215820,240.181442 1567.614868,235.910751 
	C1557.059448,229.980026 1545.647217,227.058609 1533.864380,224.904251 
	C1526.715820,223.597214 1519.602661,223.031876 1512.360352,222.936646 
	C1501.443237,222.793106 1490.666382,232.436722 1491.940552,243.591919 
	C1492.325195,246.960205 1492.000000,250.409561 1492.000000,255.104202 
	C1487.817505,250.428955 1484.642700,246.596100 1481.544922,242.826065 
	C1474.286743,233.992462 1465.375732,227.267349 1455.793335,221.441422 
	C1438.999146,211.230820 1420.306641,208.002747 1401.049805,209.148880 
	C1380.610474,210.365402 1362.137085,217.569061 1346.013428,230.461823 
	C1329.436523,243.717056 1317.116333,260.444214 1306.145386,278.382904 
	C1293.179321,299.583771 1285.124634,322.738007 1279.308716,346.642609 
	C1275.910034,360.611603 1273.597046,374.871796 1271.875732,389.220703 
	C1269.999390,404.861847 1267.893311,420.445740 1267.989014,436.241638 
	C1268.172119,466.507385 1258.702393,494.101166 1244.263550,520.209412 
	C1237.084473,533.190552 1228.635742,545.339355 1217.825928,555.640930 
	C1210.582275,562.544006 1202.194946,567.530518 1192.367310,569.870789 
	C1187.528687,571.022949 1178.876953,566.736755 1175.106812,561.482666 
	C1169.511353,553.684814 1165.762817,544.997131 1163.074463,535.882996 
	C1160.053223,525.640869 1158.303223,515.132080 1156.932251,504.523254 
	C1153.656616,479.173859 1153.231567,453.684082 1154.249146,428.264160 
	C1155.000610,409.490967 1153.899902,390.700867 1155.229858,372.013367 
	C1156.116455,359.555328 1154.946533,347.098755 1156.167847,334.755981 
	C1157.251709,323.804871 1156.014771,312.831146 1157.193604,302.002747 
	C1158.205688,292.706482 1157.414551,283.460968 1158.043579,274.226746 
	C1159.167236,257.735657 1159.572266,241.222961 1160.236084,224.717453 
	C1160.500610,218.142899 1160.912720,211.541382 1160.935181,204.949722 
	C1160.945679,201.831284 1162.153687,200.674728 1165.103271,200.997772 
	C1165.267944,201.015808 1165.436401,200.997818 1165.603027,201.000351 
	C1198.030273,201.492584 1230.440308,198.946854 1262.853516,200.157196 
	C1274.370728,200.587265 1281.110352,195.934433 1285.135742,185.527298 
	C1288.620361,176.518356 1291.043091,167.412003 1291.013306,157.712769 
	C1291.004150,154.748581 1290.038452,152.060776 1289.098755,149.308304 
	C1287.899048,145.794205 1285.676758,144.460800 1281.963745,143.876129 
	C1271.429321,142.217255 1260.862915,141.489578 1250.227661,140.869553 
	C1235.058105,139.985138 1219.895508,139.349869 1204.708374,138.876846 
	C1191.600342,138.468582 1178.531250,136.903503 1165.430542,136.081131 
	C1162.855591,135.919510 1162.985840,134.685547 1162.984619,132.934265 
	C1162.978271,123.834831 1163.890137,114.771606 1164.216675,105.684875 
	C1164.579224,95.597191 1164.468384,85.483612 1165.115112,75.426643 
	C1166.058350,60.758839 1166.648682,46.092930 1167.111450,31.406849 
	C1167.309204,25.126043 1164.264893,21.572002 1159.287476,19.050617 
	C1145.011719,11.818954 1129.824585,7.255900 1114.211426,4.013289 
	C1109.931519,3.124424 1105.707764,1.879024 1101.144531,1.391058 
	C1832.714478,1.000000 2564.428955,1.003510 3296.143311,0.905209 
	C3299.972900,0.904695 3301.129150,1.357991 3301.125244,5.641841 
	C3300.977051,167.115356 3301.000000,328.589020 3301.000000,490.531342 
z"/>
<path fill="#FFFFFF" opacity="1.000000" stroke="none" 
	d="
M1841.468628,937.000000 
	C1847.098389,934.679626 1853.621704,934.089417 1859.881714,932.237305 
	C1873.207275,928.294678 1885.118896,921.836853 1896.355469,914.012878 
	C1903.465454,909.062378 1910.179688,903.513000 1916.228516,897.255127 
	C1935.069580,877.762512 1946.851807,854.468750 1954.143188,828.500000 
	C1957.981567,814.829407 1961.198608,801.023987 1963.746948,787.126282 
	C1965.855591,775.625488 1966.937134,763.884521 1968.133057,752.194641 
	C1971.626343,718.049255 1969.961182,683.833862 1969.689453,649.674805 
	C1969.552246,632.439026 1969.482422,615.163452 1968.909302,597.918640 
	C1968.787964,594.273132 1970.201782,591.646301 1972.340088,589.164429 
	C1988.258667,570.687805 2003.031250,551.345947 2017.256226,531.527405 
	C2035.138306,506.613434 2051.255615,480.667694 2066.081299,453.843018 
	C2082.114014,424.834381 2096.595947,395.130157 2109.320312,364.513489 
	C2115.296143,350.135193 2120.765625,335.596924 2125.849609,320.907745 
	C2126.740723,318.333313 2127.921387,318.160400 2130.038574,317.956268 
	C2142.773193,316.728241 2155.558105,317.442352 2168.289551,316.822174 
	C2174.203369,316.534058 2180.120117,315.999481 2186.055908,316.011108 
	C2192.145020,316.023010 2193.416016,317.613403 2191.990723,323.586243 
	C2187.756592,341.328766 2184.017578,359.196106 2181.206543,377.194916 
	C2179.374512,388.925568 2178.000732,400.773132 2176.804443,412.631165 
	C2174.745850,433.037872 2173.470703,453.442291 2174.091309,473.914032 
	C2174.571777,489.751129 2176.166748,505.482910 2178.772705,521.192139 
	C2182.134521,541.457947 2188.316162,560.623108 2198.252686,578.435791 
	C2207.901855,595.733276 2221.250000,609.702698 2238.357666,620.157959 
	C2249.098633,626.722351 2260.568604,631.268860 2272.675537,633.695923 
	C2291.378662,637.445312 2309.211426,633.877502 2325.493652,623.921753 
	C2345.049316,611.964417 2359.526855,595.363098 2369.154541,574.545471 
	C2369.354004,574.114258 2369.771973,573.783875 2370.334961,573.111450 
	C2373.072266,577.458435 2375.704346,581.669922 2378.369141,585.860474 
	C2381.072266,590.111389 2384.179443,594.039490 2387.336182,597.978821 
	C2399.463867,613.112793 2414.789795,623.551086 2432.945557,629.946716 
	C2446.584229,634.751099 2460.836914,636.262329 2475.051758,634.828491 
	C2497.576660,632.556335 2518.012207,624.162048 2536.499023,611.021973 
	C2553.653076,598.829163 2567.020752,583.236816 2577.942139,565.408752 
	C2580.425049,561.355469 2582.788574,557.228943 2585.443115,552.737061 
	C2591.647705,586.425720 2608.224121,611.904846 2638.909912,626.914368 
	C2653.086182,633.848694 2668.402100,636.432556 2684.059814,634.887329 
	C2704.981445,632.822449 2721.486816,622.728638 2734.544922,606.173767 
	C2742.726807,595.801147 2748.957031,584.495544 2754.600830,572.442322 
	C2755.071289,573.821716 2755.719971,575.142090 2755.940430,576.530579 
	C2756.173096,577.993896 2756.001709,579.522217 2755.999268,581.022156 
	C2755.981201,592.356689 2757.349365,603.572021 2759.054688,614.744934 
	C2759.683838,618.864563 2762.376465,622.006287 2765.819092,623.891541 
	C2775.770508,629.341431 2786.382568,632.661499 2797.752686,634.175903 
	C2806.718994,635.369995 2815.623779,635.038391 2824.517334,634.829224 
	C2831.099365,634.674438 2837.725586,633.302856 2844.179199,631.810974 
	C2848.787354,630.745605 2852.178711,627.497131 2853.641846,622.808960 
	C2854.940430,618.647583 2855.771484,614.430420 2856.126709,609.996277 
	C2857.147949,597.242737 2856.240967,584.434570 2857.238770,571.748413 
	C2857.916992,563.126099 2857.268311,554.522583 2858.073975,545.978882 
	C2859.779297,527.892822 2860.501953,509.749420 2862.783447,491.678131 
	C2867.170898,456.923737 2877.052490,423.645142 2888.093262,390.652405 
	C2895.487793,368.555084 2904.489746,347.078400 2916.978027,327.247742 
	C2918.454102,324.903564 2920.084473,321.502869 2922.924316,322.290222 
	C2926.007812,323.145142 2924.895508,326.947784 2924.989014,329.604248 
	C2925.430664,342.186829 2925.844971,354.771149 2926.189697,367.355713 
	C2926.537109,380.022644 2927.241699,392.728546 2928.209717,405.360352 
	C2929.322021,419.874939 2930.348389,434.418518 2931.733643,448.925903 
	C2932.916504,461.311737 2933.842773,473.776550 2935.217773,486.135010 
	C2936.686523,499.334412 2938.397705,512.550232 2940.880615,525.654419 
	C2943.401367,538.959778 2945.334229,552.388306 2950.024902,565.149719 
	C2957.961182,586.740234 2975.945557,603.843201 3002.053955,603.042725 
	C3010.844238,602.773193 3019.677002,603.572754 3027.859619,599.065979 
	C3034.390869,595.468689 3038.476318,590.760620 3038.048096,582.790649 
	C3037.434326,571.359802 3037.884277,559.887756 3039.131836,548.551208 
	C3040.961914,531.920471 3043.203125,515.333374 3045.788330,498.777405 
	C3049.655273,474.012512 3054.818604,449.543152 3061.171631,425.362976 
	C3066.996338,403.193878 3074.531250,381.505096 3082.965088,360.155975 
	C3088.671875,345.710022 3094.467529,331.309082 3101.509277,316.900848 
	C3104.207275,320.427307 3103.361816,324.267365 3102.828125,327.429382 
	C3101.374756,336.035980 3102.246338,344.627289 3102.032715,353.214417 
	C3101.603271,370.464203 3100.092285,387.722626 3101.114990,404.963562 
	C3101.931396,418.724243 3101.577637,432.482361 3102.099121,446.223816 
	C3102.659912,460.997406 3103.596680,475.782349 3105.088135,490.489502 
	C3107.814209,517.373474 3111.543213,544.207581 3122.208740,569.272949 
	C3134.248779,597.568420 3152.959229,620.096069 3183.044922,630.387573 
	C3206.378418,638.369385 3229.449219,637.283630 3250.744141,623.584900 
	C3261.437744,616.705872 3269.510010,607.030273 3275.957520,596.123779 
	C3287.735352,576.201965 3294.246338,554.451172 3298.076416,531.758789 
	C3298.832520,527.277283 3300.115723,522.886658 3300.605225,518.149414 
	C3301.000000,655.967896 3300.981934,793.935730 3301.091797,931.903564 
	C3301.094971,935.874817 3300.591797,937.131714 3296.098633,937.130432 
	C2811.378174,936.991455 2326.657715,937.000000 1841.468628,937.000000 
z"/>
<path fill="#030304" opacity="1.000000" stroke="none" 
	d="
M202.531357,1.000000 
	C211.120865,3.174011 219.341370,4.945896 227.244736,7.944494 
	C237.831757,11.961291 247.675919,17.068079 255.203903,25.771933 
	C257.857056,28.839508 259.965179,32.279129 260.010925,36.611233 
	C260.323425,66.192642 260.915314,95.773399 260.954071,125.354973 
	C261.077820,219.838882 261.471588,314.326843 260.721802,408.804962 
	C260.487091,438.381287 260.932770,467.990265 259.755188,497.540924 
	C259.293091,509.138000 259.662903,520.737000 258.950043,532.300293 
	C257.130066,561.822632 254.131577,591.175354 243.999146,619.273804 
	C236.619217,639.739197 226.779129,658.741089 212.342850,675.328491 
	C200.833191,688.553162 187.386093,699.001221 171.718689,706.586670 
	C166.551041,709.088623 161.113159,711.207947 155.048737,711.055420 
	C146.401779,710.837830 142.547791,705.573181 144.354965,697.058472 
	C147.462555,682.416748 153.195312,668.544128 156.519730,653.981934 
	C159.405914,641.339355 161.728149,628.624756 163.088837,615.695557 
	C164.901321,598.473572 165.236969,581.194824 166.253113,563.944824 
	C167.379089,544.829834 166.756821,525.762573 166.922791,506.680420 
	C167.203918,474.354980 166.281876,442.005981 167.150986,409.701477 
	C168.906311,344.455872 166.700760,279.196289 168.226135,213.977188 
	C169.354828,165.719009 168.375214,117.480476 168.995575,69.237717 
	C169.045990,65.317719 169.415039,60.211212 165.707123,58.800838 
	C162.959732,57.755814 159.833344,61.824261 157.243393,64.224396 
	C135.925034,83.980354 120.314110,107.829994 108.104034,133.922195 
	C97.391541,156.814148 89.790001,180.752563 84.823021,205.638138 
	C80.306816,228.265228 78.887802,251.048935 80.208275,273.874207 
	C81.736252,300.286133 88.608185,325.343506 103.930794,347.560547 
	C107.543900,352.799377 111.128906,358.207214 112.357651,364.742554 
	C113.850800,372.684235 109.534279,381.232635 98.359840,379.395294 
	C70.405006,374.798950 50.184765,358.200714 32.126961,338.364563 
	C18.154766,323.016327 9.492133,304.471832 4.198280,284.423737 
	C3.307219,281.049255 3.669223,277.364197 1.377323,274.110962 
	C1.000000,259.979095 1.000000,245.958206 1.000000,231.468658 
	C1.737391,230.271561 1.487447,229.375275 1.211615,228.255280 
	C1.000000,227.555557 1.000000,227.111099 1.000000,226.333328 
	C3.018378,217.960724 4.214454,209.759018 6.431701,201.736282 
	C19.624956,153.998718 42.860756,111.739632 75.249863,74.415924 
	C96.489189,49.940704 120.707794,29.004484 148.932785,12.885899 
	C155.014282,9.412918 161.299515,6.342727 167.727341,3.554723 
	C170.833908,2.207287 174.043228,1.512894 177.704575,1.223693 
	C186.020905,1.000000 194.041809,1.000000 202.531357,1.000000 
z"/>
<path fill="#FFFFFF" opacity="1.000000" stroke="none" 
	d="
M177.531342,1.000000 
	C157.059631,7.914890 138.606522,19.526829 121.186058,32.574009 
	C104.708427,44.915047 90.019623,59.372784 76.457115,74.960915 
	C62.288139,91.246101 49.739113,108.629646 38.965977,127.319954 
	C26.178299,149.505280 16.006302,172.798798 8.985994,197.452133 
	C6.519081,206.115219 4.093497,214.775070 2.949157,223.741379 
	C2.857527,224.459351 2.167035,225.100891 1.377420,225.888977 
	C1.000000,152.413559 1.033116,78.827057 0.900580,5.240856 
	C0.894067,1.624550 1.659234,0.893094 5.250305,0.901832 
	C62.520840,1.041189 119.791809,1.000000 177.531342,1.000000 
z"/>
<path fill="#FFFFFF" opacity="1.000000" stroke="none" 
	d="
M1.000000,228.375000 
	C2.692854,228.592010 1.952875,229.767532 1.339539,230.915619 
	C1.000000,230.250000 1.000000,229.500000 1.000000,228.375000 
z"/>
<path fill="#FFFFFF" opacity="1.000000" stroke="none" 
	d="
M1358.000000,420.887634 
	C1358.478760,407.653137 1360.157227,395.038605 1361.856323,382.389862 
	C1364.077881,365.851044 1367.513916,349.680115 1372.975708,333.924866 
	C1378.489258,318.021027 1385.924072,303.169678 1398.228149,291.408997 
	C1406.953491,283.069000 1417.498291,277.581207 1429.747314,277.104126 
	C1449.187378,276.347015 1463.275879,285.751678 1472.951904,302.049438 
	C1481.355469,316.203949 1485.602051,331.793915 1488.073486,347.994995 
	C1489.707397,358.706665 1490.377075,369.457428 1491.248413,380.230316 
	C1491.986450,389.354797 1492.321167,398.461670 1491.851318,407.500946 
	C1490.882935,426.131378 1490.002197,444.751312 1487.232300,463.301788 
	C1483.904297,485.591644 1478.739014,507.297882 1469.839478,527.912048 
	C1461.413452,547.429138 1449.855591,564.824646 1430.298584,575.225952 
	C1412.574341,584.652588 1395.189697,578.166992 1383.742676,563.467407 
	C1371.145020,547.290161 1366.053711,528.282471 1362.095947,508.844330 
	C1359.654419,496.853180 1358.802856,484.622314 1357.775391,472.400085 
	C1356.559814,457.943237 1357.565552,443.537262 1356.984253,429.124390 
	C1356.876831,426.462738 1358.631348,424.075836 1358.000000,420.887634 
z"/>
<path fill="#FFFFFF" opacity="1.000000" stroke="none" 
	d="
M2564.000000,470.980225 
	C2560.128418,493.357635 2554.178711,514.739563 2544.482666,534.784363 
	C2536.290771,551.718567 2525.579102,566.995544 2507.890137,575.547852 
	C2488.782227,584.786377 2473.357422,578.799988 2461.127197,563.212830 
	C2449.542725,548.449158 2444.480957,530.794678 2440.980957,512.638550 
	C2437.430664,494.222687 2436.511230,475.624512 2435.688965,456.916962 
	C2435.143555,444.507599 2436.044678,432.206482 2436.302246,419.897980 
	C2436.556885,407.732635 2438.229004,395.520447 2439.799072,383.356201 
	C2442.165527,365.019257 2445.587891,347.023010 2452.027100,329.690033 
	C2458.878906,311.246979 2468.489502,294.576416 2485.729492,283.914734 
	C2501.850586,273.945160 2521.112305,274.671173 2536.272461,285.766724 
	C2550.116455,295.898895 2556.353760,310.835358 2560.827148,326.435364 
	C2565.031250,341.095947 2567.127930,356.189514 2568.214844,371.523529 
	C2569.593262,390.971649 2569.178955,410.398865 2568.729980,429.787903 
	C2568.414795,443.394958 2566.954834,457.113403 2564.000000,470.980225 
z"/>
<path fill="#FFFFFF" opacity="1.000000" stroke="none" 
	d="
M1830.935425,570.006226 
	C1818.772339,578.724365 1806.199829,583.218994 1791.757080,576.995239 
	C1781.163208,572.430054 1774.242432,564.039856 1768.771362,554.295166 
	C1760.962891,540.387390 1757.123901,525.136230 1754.000854,509.662201 
	C1748.752930,483.661133 1748.130249,457.310822 1749.191528,430.983917 
	C1749.872681,414.087311 1751.944336,397.249146 1754.812622,380.484589 
	C1758.750488,357.466858 1765.031128,335.319763 1776.126343,314.781677 
	C1783.477783,301.173737 1793.008179,289.078369 1807.437256,282.295441 
	C1831.432129,271.015839 1855.454712,278.968475 1867.959473,302.692963 
	C1874.642700,315.372620 1877.915527,329.049042 1880.092285,343.141968 
	C1882.233032,357.001404 1882.350342,370.940155 1883.271362,384.860016 
	C1884.136963,397.939758 1882.979736,410.893921 1882.697754,423.859222 
	C1882.398315,437.629669 1880.585449,451.414612 1878.215210,465.117065 
	C1875.270020,482.143921 1871.373291,498.857269 1865.991577,515.239624 
	C1859.043701,536.389648 1848.805298,555.494385 1830.935425,570.006226 
z"/>
<path fill="#FFFFFF" opacity="1.000000" stroke="none" 
	d="
M1881.000244,831.980835 
	C1877.835205,844.714600 1874.019775,856.810242 1867.957642,868.023254 
	C1859.454834,883.751038 1846.532837,893.651245 1828.765991,897.027161 
	C1814.329102,899.770325 1801.391968,897.296204 1790.303589,887.065979 
	C1783.066040,880.388489 1778.864380,872.117920 1777.039795,862.633240 
	C1773.654419,845.035339 1778.169556,828.462158 1784.375977,812.268433 
	C1791.035034,794.894104 1800.580811,779.063232 1811.480225,764.048218 
	C1823.390015,747.640991 1836.383911,732.148132 1850.111328,717.202209 
	C1863.861450,702.231506 1877.846924,687.521362 1893.000000,672.537354 
	C1893.000000,679.152161 1893.000000,684.891174 1893.000000,690.630249 
	C1893.000000,699.130127 1892.927612,707.630737 1893.015015,716.129700 
	C1893.198853,734.002502 1892.102661,751.848145 1890.811646,769.632019 
	C1889.367188,789.531128 1886.344482,809.305237 1881.965332,828.820679 
	C1881.755493,829.756348 1881.328613,830.643311 1881.000244,831.980835 
z"/>
</svg>